G04*
G04 #@! TF.GenerationSoftware,Altium Limited,Altium Designer,22.11.1 (43)*
G04*
G04 Layer_Color=2752767*
%FSLAX25Y25*%
%MOIN*%
G70*
G04*
G04 #@! TF.SameCoordinates,6F2D09EA-FD7B-4BD8-B8BB-3870161F1110*
G04*
G04*
G04 #@! TF.FilePolarity,Positive*
G04*
G01*
G75*
%ADD13C,0.00500*%
D13*
X17705Y49177D02*
Y48177D01*
X19705D01*
Y49177D01*
X20705D01*
Y51177D01*
X19705D01*
Y52177D01*
X17705D01*
Y51177D01*
X16705D01*
Y49177D01*
X17705D01*
Y72799D02*
Y71799D01*
X19705D01*
Y72799D01*
X20705D01*
Y74799D01*
X19705D01*
Y75799D01*
X17705D01*
Y74799D01*
X16705D01*
Y72799D01*
X17705D01*
X19559Y76996D02*
X20559Y78996D01*
X19559Y80996D01*
X21559Y79996D01*
X23559Y80996D01*
X22559Y78996D01*
X23559Y76996D01*
X21559Y77996D01*
X19559Y76996D01*
Y42980D02*
X20559Y44980D01*
X19559Y46980D01*
X21559Y45980D01*
X23559Y46980D01*
X22559Y44980D01*
X23559Y42980D01*
X21559Y43980D01*
X19559Y42980D01*
X6500Y76996D02*
X7500Y77996D01*
X8500D01*
X7500Y78996D01*
X8500Y79996D01*
X7500D01*
X6500Y80996D01*
X5500Y79996D01*
X4500D01*
X5500Y78996D01*
X4500Y77996D01*
X5500D01*
X6500Y76996D01*
Y42980D02*
X7500Y43980D01*
X8500D01*
X7500Y44980D01*
X8500Y45980D01*
X7500D01*
X6500Y46980D01*
X5500Y45980D01*
X4500D01*
X5500Y44980D01*
X4500Y43980D01*
X5500D01*
X6500Y42980D01*
X309000Y5500D02*
X310000D01*
X311000Y6500D01*
X312000Y5500D01*
X313000D01*
Y6500D01*
X312000Y7500D01*
X313000Y8500D01*
Y9500D01*
X312000D01*
X311000Y8500D01*
X310000Y9500D01*
X309000D01*
Y8500D01*
X310000Y7500D01*
X309000Y6500D01*
Y5500D01*
X6500D02*
X7500D01*
X8500Y6500D01*
X9500Y5500D01*
X10500D01*
Y6500D01*
X9500Y7500D01*
X10500Y8500D01*
Y9500D01*
X9500D01*
X8500Y8500D01*
X7500Y9500D01*
X6500D01*
Y8500D01*
X7500Y7500D01*
X6500Y6500D01*
Y5500D01*
X309000Y114500D02*
X310000D01*
X311000Y115500D01*
X312000Y114500D01*
X313000D01*
Y115500D01*
X312000Y116500D01*
X313000Y117500D01*
Y118500D01*
X312000D01*
X311000Y117500D01*
X310000Y118500D01*
X309000D01*
Y117500D01*
X310000Y116500D01*
X309000Y115500D01*
Y114500D01*
X6500D02*
X7500D01*
X8500Y115500D01*
X9500Y114500D01*
X10500D01*
Y115500D01*
X9500Y116500D01*
X10500Y117500D01*
Y118500D01*
X9500D01*
X8500Y117500D01*
X7500Y118500D01*
X6500D01*
Y117500D01*
X7500Y116500D01*
X6500Y115500D01*
Y114500D01*
X294000Y72500D02*
X292000Y76500D01*
X296000D01*
X294000Y72500D01*
X28000Y51000D02*
Y55000D01*
X32000D01*
Y51000D01*
X28000D01*
X14500D02*
Y55000D01*
X18500D01*
Y51000D01*
X14500D01*
X16500Y55000D02*
Y59000D01*
X20500D01*
Y55000D01*
X16500D01*
X15500Y58000D02*
Y62000D01*
X19500D01*
Y58000D01*
X15500D01*
X8000Y34000D02*
Y38000D01*
X12000D01*
Y34000D01*
X8000D01*
X11500Y61500D02*
Y65500D01*
X15500D01*
Y61500D01*
X11500D01*
X33000Y80000D02*
Y84000D01*
X37000D01*
Y80000D01*
X33000D01*
X30000Y21000D02*
Y25000D01*
X34000D01*
Y21000D01*
X30000D01*
X19500Y30500D02*
Y34500D01*
X23500D01*
Y30500D01*
X19500D01*
X27000D02*
Y34500D01*
X31000D01*
Y30500D01*
X27000D01*
M02*
