G04*
G04 #@! TF.GenerationSoftware,Altium Limited,Altium Designer,22.11.1 (43)*
G04*
G04 Layer_Color=16711935*
%FSLAX25Y25*%
%MOIN*%
G70*
G04*
G04 #@! TF.SameCoordinates,6F2D09EA-FD7B-4BD8-B8BB-3870161F1110*
G04*
G04*
G04 #@! TF.FilePolarity,Negative*
G04*
G01*
G75*
%ADD28R,0.14580X0.06706*%
%ADD34C,0.03162*%
%ADD35C,0.03280*%
%ADD36O,0.09918X0.05359*%
%ADD37O,0.10249X0.05524*%
%ADD38C,0.12611*%
%ADD47R,0.08674X0.06706*%
%ADD48R,0.06706X0.08674*%
D28*
X310500Y51500D02*
D03*
Y72760D02*
D03*
D34*
X18705Y50177D02*
D03*
D35*
D03*
Y73799D02*
D03*
D36*
X21559Y78996D02*
D03*
Y44980D02*
D03*
D37*
X6500Y78996D02*
D03*
Y44980D02*
D03*
D38*
X311000Y7500D02*
D03*
X8500D02*
D03*
X311000Y116500D02*
D03*
X8500D02*
D03*
D47*
X42583Y55777D02*
D03*
X293933Y74768D02*
D03*
Y64805D02*
D03*
X42583Y46288D02*
D03*
Y36800D02*
D03*
Y27312D02*
D03*
D48*
X187436Y114353D02*
D03*
X267512Y9500D02*
D03*
X277436D02*
D03*
X267436Y114353D02*
D03*
X277436D02*
D03*
X58512Y9500D02*
D03*
X68000D02*
D03*
X58488Y114353D02*
D03*
X175436D02*
D03*
X67976D02*
D03*
M02*
