G04*
G04 #@! TF.GenerationSoftware,Altium Limited,Altium Designer,22.11.1 (43)*
G04*
G04 Layer_Physical_Order=1*
G04 Layer_Color=255*
%FSLAX25Y25*%
%MOIN*%
G70*
G04*
G04 #@! TF.SameCoordinates,6F2D09EA-FD7B-4BD8-B8BB-3870161F1110*
G04*
G04*
G04 #@! TF.FilePolarity,Positive*
G04*
G01*
G75*
%ADD15C,0.01000*%
%ADD16R,0.03937X0.02047*%
%ADD17R,0.03937X0.01063*%
%ADD18R,0.07874X0.03937*%
%ADD19R,0.13780X0.05906*%
%ADD20R,0.03150X0.03150*%
%ADD21R,0.03740X0.02756*%
%ADD22R,0.03347X0.03347*%
%ADD23R,0.02362X0.04331*%
%ADD24R,0.02362X0.04331*%
%ADD39C,0.03251*%
%ADD40C,0.02362*%
%ADD41C,0.02480*%
%ADD42O,0.09118X0.04559*%
%ADD43O,0.09449X0.04724*%
%ADD44C,0.11811*%
G36*
X7000Y75605D02*
X8862D01*
X9740Y75720D01*
X10558Y76059D01*
X11187Y76542D01*
X11687Y76414D01*
Y73000D01*
X11787Y72498D01*
X12072Y72072D01*
X16194Y67950D01*
X16620Y67665D01*
X17122Y67565D01*
X20279D01*
Y66254D01*
X18441D01*
X17939Y66154D01*
X17513Y65869D01*
X16572Y64928D01*
X16287Y64502D01*
X16187Y64000D01*
Y61471D01*
X15831Y61115D01*
X15531Y60392D01*
Y59608D01*
X15831Y58885D01*
X16385Y58331D01*
X16391Y58328D01*
X16651Y57680D01*
X16532Y57392D01*
Y56608D01*
X16831Y55885D01*
X17385Y55331D01*
X18108Y55032D01*
X18892D01*
X19615Y55331D01*
X19780Y55496D01*
X20279Y55288D01*
Y54181D01*
X18103D01*
X17615Y54669D01*
X16892Y54969D01*
X16108D01*
X15385Y54669D01*
X15313Y54597D01*
X14813Y54804D01*
Y62029D01*
X15169Y62385D01*
X15469Y63108D01*
Y63892D01*
X15169Y64615D01*
X14615Y65169D01*
X13892Y65469D01*
X13108D01*
X12385Y65169D01*
X12152Y64936D01*
X11688Y64795D01*
X11688D01*
X11688D01*
Y64796D01*
X11447Y64868D01*
X11437Y64874D01*
X11437Y64956D01*
Y67000D01*
X7000D01*
Y64531D01*
X11079Y64531D01*
X11255Y64531D01*
X11405Y64358D01*
X11531Y63892D01*
Y63108D01*
X11831Y62385D01*
X12187Y62029D01*
Y46991D01*
X11687Y46821D01*
X11260Y47378D01*
X10558Y47917D01*
X9740Y48256D01*
X8862Y48371D01*
X7000D01*
Y44980D01*
X6000D01*
Y48371D01*
X4138D01*
X3260Y48256D01*
X2442Y47917D01*
X1740Y47378D01*
X1500Y47066D01*
X1000Y47235D01*
Y76741D01*
X1500Y76911D01*
X1740Y76598D01*
X2442Y76059D01*
X3260Y75720D01*
X4138Y75605D01*
X6000D01*
Y78996D01*
X7000D01*
Y75605D01*
D02*
G37*
G36*
X318500Y77167D02*
X318390Y76713D01*
X318000Y76713D01*
X311000D01*
Y72760D01*
Y68807D01*
X318000D01*
X318390Y68807D01*
X318500Y68353D01*
Y66236D01*
X318177Y65870D01*
X318000Y65870D01*
X302823D01*
Y64676D01*
X302327Y64451D01*
X301317Y64550D01*
X300179Y64896D01*
X299130Y65456D01*
X298211Y66211D01*
X297456Y67130D01*
X296896Y68179D01*
X296550Y69317D01*
X296443Y70411D01*
X296460Y70500D01*
Y74500D01*
X296273Y75441D01*
X295740Y76240D01*
X294941Y76773D01*
X294000Y76960D01*
X293058Y76773D01*
X292260Y76240D01*
X291727Y75441D01*
X291540Y74500D01*
Y70500D01*
X291562Y70388D01*
X291688Y68787D01*
X292089Y67117D01*
X292746Y65530D01*
X293644Y64066D01*
X294759Y62759D01*
X296066Y61644D01*
X297530Y60746D01*
X299117Y60089D01*
X300787Y59688D01*
X302387Y59562D01*
X302500Y59540D01*
X302823D01*
Y58390D01*
X318000D01*
X318177Y58390D01*
X318500Y58024D01*
Y55907D01*
X318390Y55453D01*
X318000Y55453D01*
X311000D01*
Y51500D01*
Y47547D01*
X318000D01*
X318390Y47547D01*
X318500Y47093D01*
Y0D01*
X1000D01*
Y42725D01*
X1500Y42895D01*
X1740Y42582D01*
X2442Y42044D01*
X3260Y41705D01*
X4138Y41589D01*
X5661D01*
X5813Y41089D01*
X5572Y40928D01*
X4211Y39567D01*
X3926Y39141D01*
X3826Y38639D01*
Y38512D01*
X2039D01*
Y33591D01*
X6961D01*
Y38512D01*
X7388Y38687D01*
X11500D01*
X12002Y38787D01*
X12428Y39072D01*
X14428Y41072D01*
X14713Y41498D01*
X14813Y42000D01*
Y51196D01*
X15313Y51403D01*
X15385Y51331D01*
X16108Y51032D01*
X16414D01*
X16692Y50616D01*
X16677Y50581D01*
Y49774D01*
X16986Y49029D01*
X17556Y48458D01*
X17678Y48408D01*
Y47867D01*
X17626Y47845D01*
X16940Y47319D01*
X16415Y46634D01*
X16084Y45836D01*
X16037Y45480D01*
X21559D01*
Y44480D01*
X16037D01*
X16084Y44124D01*
X16415Y43326D01*
X16940Y42641D01*
X17215Y42431D01*
X17248Y41932D01*
X17072Y41756D01*
X16787Y41330D01*
X16687Y40828D01*
Y38044D01*
X13330Y34686D01*
X13321Y34685D01*
X13313Y34694D01*
X12814Y33947D01*
X12638Y33065D01*
X12651Y33065D01*
X12656Y33059D01*
Y31268D01*
X11328D01*
Y34545D01*
X11669Y34885D01*
X11969Y35608D01*
Y36392D01*
X11669Y37115D01*
X11115Y37669D01*
X10392Y37969D01*
X9608D01*
X8885Y37669D01*
X8331Y37115D01*
X8032Y36392D01*
Y35608D01*
X8331Y34885D01*
X8703Y34513D01*
Y31268D01*
X8063D01*
Y25362D01*
X15937D01*
Y31268D01*
X15281D01*
Y32925D01*
X18635Y36279D01*
X18649Y36265D01*
X19155Y37022D01*
X19332Y37914D01*
X19313D01*
X19313Y37914D01*
Y40101D01*
X25488D01*
X25991Y40201D01*
X26417Y40485D01*
X29716Y43784D01*
X30000Y44210D01*
X30100Y44712D01*
Y49520D01*
X30000Y50022D01*
X29836Y50268D01*
X29998Y50740D01*
X30063Y50807D01*
X30301Y50842D01*
X31187Y49956D01*
Y41044D01*
X24072Y33928D01*
X23787Y33502D01*
X23777Y33452D01*
X23257Y33401D01*
X23169Y33615D01*
X22615Y34169D01*
X21892Y34468D01*
X21108D01*
X20385Y34169D01*
X19831Y33615D01*
X19532Y32892D01*
Y32108D01*
X19803Y31453D01*
X19693Y31168D01*
X19556Y30953D01*
X19291D01*
Y25047D01*
X29976D01*
X30223Y24547D01*
X30044Y24313D01*
X25586D01*
X25084Y24213D01*
X24658Y23928D01*
X24072Y23342D01*
X23787Y22917D01*
X23687Y22414D01*
Y21323D01*
X22819D01*
X22572Y21721D01*
Y21740D01*
X22472Y22242D01*
X22188Y22668D01*
X20928Y23928D01*
X20502Y24213D01*
X20000Y24313D01*
X11500D01*
X10998Y24213D01*
X10572Y23928D01*
X9103Y22460D01*
X8819Y22034D01*
X8719Y21531D01*
Y20638D01*
X8063D01*
X8063Y14828D01*
X7936Y14608D01*
X7708Y14383D01*
X6486Y14140D01*
X5229Y13620D01*
X4098Y12864D01*
X3136Y11902D01*
X2380Y10771D01*
X1860Y9514D01*
X1595Y8180D01*
Y8000D01*
X15405D01*
Y8180D01*
X15140Y9514D01*
X14620Y10771D01*
X14527Y10910D01*
X14915Y11228D01*
X17572Y8572D01*
X17998Y8287D01*
X18500Y8187D01*
X26000D01*
X26502Y8287D01*
X26928Y8572D01*
X29428Y11072D01*
X29713Y11498D01*
X29813Y12000D01*
Y15205D01*
X30709D01*
Y20633D01*
X31209Y20967D01*
X31500Y20846D01*
Y23000D01*
Y25154D01*
X31201Y25030D01*
X30709Y25367D01*
Y30953D01*
X30709Y30953D01*
X30697Y31453D01*
X30968Y32108D01*
Y32892D01*
X30669Y33615D01*
X30115Y34169D01*
X29392Y34468D01*
X29032D01*
X28825Y34969D01*
X33428Y39572D01*
X33713Y39998D01*
X33813Y40500D01*
Y50500D01*
Y68500D01*
X33713Y69002D01*
X33428Y69428D01*
X30688Y72168D01*
X30262Y72453D01*
X29760Y72553D01*
X26004D01*
Y73693D01*
X23035D01*
Y74693D01*
X26004D01*
Y76217D01*
X26004Y76217D01*
X26004D01*
X26174Y76654D01*
X26178Y76657D01*
X26703Y77342D01*
X27034Y78140D01*
X27081Y78496D01*
X21559D01*
Y78996D01*
X21059D01*
Y82304D01*
X19279D01*
X18423Y82191D01*
X17626Y81861D01*
X17313Y81621D01*
X16813Y81867D01*
Y82000D01*
X16713Y82502D01*
X16428Y82928D01*
X14522Y84835D01*
X14729Y85335D01*
X15409D01*
Y89665D01*
X10095D01*
Y85537D01*
X10095Y85537D01*
X10095Y85537D01*
X9679Y85316D01*
X9604Y85313D01*
X6993D01*
X6961Y85344D01*
Y88410D01*
X2039D01*
Y83488D01*
X5104D01*
X5521Y83072D01*
X5797Y82887D01*
X5645Y82387D01*
X4138D01*
X3260Y82272D01*
X2442Y81933D01*
X1740Y81394D01*
X1500Y81081D01*
X1000Y81251D01*
Y124000D01*
X318500D01*
Y77167D01*
D02*
G37*
G36*
X31187Y67956D02*
Y55180D01*
X30687Y54846D01*
X30392Y54969D01*
X29608D01*
X29151Y54779D01*
X28651Y55088D01*
Y60162D01*
Y61877D01*
X28551Y62379D01*
X28267Y62805D01*
X27171Y63901D01*
X26745Y64185D01*
X26243Y64285D01*
X25791D01*
Y65591D01*
Y69928D01*
X29216D01*
X31187Y67956D01*
D02*
G37*
G36*
X19123Y21540D02*
X19291Y21110D01*
X19291D01*
Y15205D01*
X22819D01*
Y14992D01*
X24500D01*
Y18158D01*
X25500D01*
Y14992D01*
X27181D01*
X27187Y14495D01*
Y12544D01*
X25456Y10813D01*
X19044D01*
X15624Y14232D01*
X15831Y14732D01*
X15937D01*
Y20638D01*
X11701D01*
X11494Y21138D01*
X12044Y21687D01*
X19024D01*
X19123Y21540D01*
D02*
G37*
%LPC*%
G36*
X11437Y70468D02*
X7000D01*
Y68000D01*
X11437D01*
Y70468D01*
D02*
G37*
G36*
X6000D02*
X1563D01*
Y68000D01*
X6000D01*
Y70468D01*
D02*
G37*
G36*
Y67000D02*
X1563D01*
Y64531D01*
X6000D01*
Y67000D01*
D02*
G37*
G36*
X11437Y59445D02*
X7000D01*
Y56976D01*
X11437D01*
Y59445D01*
D02*
G37*
G36*
X6000D02*
X1563D01*
Y56976D01*
X6000D01*
Y59445D01*
D02*
G37*
G36*
X11437Y55976D02*
X7000D01*
Y53508D01*
X11437D01*
Y55976D01*
D02*
G37*
G36*
X6000D02*
X1563D01*
Y53508D01*
X6000D01*
Y55976D01*
D02*
G37*
G36*
X311680Y123406D02*
X311500D01*
Y117000D01*
X317905D01*
Y117180D01*
X317640Y118514D01*
X317120Y119771D01*
X316364Y120902D01*
X315402Y121864D01*
X314271Y122620D01*
X313014Y123140D01*
X311680Y123406D01*
D02*
G37*
G36*
X310500D02*
X310320D01*
X308986Y123140D01*
X307729Y122620D01*
X306598Y121864D01*
X305636Y120902D01*
X304880Y119771D01*
X304360Y118514D01*
X304095Y117180D01*
Y117000D01*
X310500D01*
Y123406D01*
D02*
G37*
G36*
X9180D02*
X9000D01*
Y117000D01*
X15405D01*
Y117180D01*
X15140Y118514D01*
X14620Y119771D01*
X13864Y120902D01*
X12902Y121864D01*
X11771Y122620D01*
X10514Y123140D01*
X9180Y123406D01*
D02*
G37*
G36*
X8000D02*
X7820D01*
X6486Y123140D01*
X5229Y122620D01*
X4098Y121864D01*
X3136Y120902D01*
X2380Y119771D01*
X1860Y118514D01*
X1595Y117180D01*
Y117000D01*
X8000D01*
Y123406D01*
D02*
G37*
G36*
X317905Y116000D02*
X311500D01*
Y109595D01*
X311680D01*
X313014Y109860D01*
X314271Y110380D01*
X315402Y111136D01*
X316364Y112098D01*
X317120Y113229D01*
X317640Y114486D01*
X317905Y115820D01*
Y116000D01*
D02*
G37*
G36*
X310500D02*
X304095D01*
Y115820D01*
X304360Y114486D01*
X304880Y113229D01*
X305636Y112098D01*
X306598Y111136D01*
X307729Y110380D01*
X308986Y109860D01*
X310320Y109595D01*
X310500D01*
Y116000D01*
D02*
G37*
G36*
X15405D02*
X9000D01*
Y109595D01*
X9180D01*
X10514Y109860D01*
X11771Y110380D01*
X12902Y111136D01*
X13864Y112098D01*
X14620Y113229D01*
X15140Y114486D01*
X15405Y115820D01*
Y116000D01*
D02*
G37*
G36*
X8000D02*
X1595D01*
Y115820D01*
X1860Y114486D01*
X2380Y113229D01*
X3136Y112098D01*
X4098Y111136D01*
X5229Y110380D01*
X6486Y109860D01*
X7820Y109595D01*
X8000D01*
Y116000D01*
D02*
G37*
G36*
X25075Y106528D02*
X23000D01*
Y104453D01*
X25075D01*
Y106528D01*
D02*
G37*
G36*
X22000D02*
X19925D01*
Y104453D01*
X22000D01*
Y106528D01*
D02*
G37*
G36*
X25075Y103453D02*
X23000D01*
Y101378D01*
X25075D01*
Y103453D01*
D02*
G37*
G36*
X22000D02*
X19925D01*
Y101378D01*
X22000D01*
Y103453D01*
D02*
G37*
G36*
X7173Y94724D02*
X5000D01*
Y92551D01*
X7173D01*
Y94724D01*
D02*
G37*
G36*
X4000D02*
X1827D01*
Y92551D01*
X4000D01*
Y94724D01*
D02*
G37*
G36*
X7173Y91551D02*
X5000D01*
Y89378D01*
X7173D01*
Y91551D01*
D02*
G37*
G36*
X4000D02*
X1827D01*
Y89378D01*
X4000D01*
Y91551D01*
D02*
G37*
G36*
X24862Y100409D02*
X20138D01*
Y95685D01*
X21437D01*
Y89665D01*
X16590D01*
Y85335D01*
X18675D01*
X18746Y85287D01*
X19248Y85187D01*
X26252D01*
X26754Y85287D01*
X26825Y85335D01*
X28909D01*
Y89665D01*
X24063D01*
Y95685D01*
X24862D01*
Y100409D01*
D02*
G37*
G36*
X35405Y89665D02*
X30091D01*
Y85335D01*
X31435D01*
Y84252D01*
X31535Y83750D01*
X31820Y83324D01*
X33031Y82112D01*
Y81608D01*
X33331Y80885D01*
X33885Y80331D01*
X34608Y80032D01*
X35392D01*
X36115Y80331D01*
X36669Y80885D01*
X36968Y81608D01*
Y82392D01*
X36669Y83115D01*
X36115Y83669D01*
X35392Y83969D01*
X34888D01*
X34061Y84796D01*
Y85335D01*
X35405D01*
Y89665D01*
D02*
G37*
G36*
X23839Y82304D02*
X22059D01*
Y79496D01*
X27081D01*
X27034Y79852D01*
X26703Y80650D01*
X26178Y81335D01*
X25493Y81861D01*
X24695Y82191D01*
X23839Y82304D01*
D02*
G37*
G36*
X310000Y76713D02*
X302610D01*
Y73260D01*
X310000D01*
Y76713D01*
D02*
G37*
G36*
Y72260D02*
X302610D01*
Y68807D01*
X310000D01*
Y72260D01*
D02*
G37*
G36*
Y55453D02*
X302610D01*
Y52000D01*
X310000D01*
Y55453D01*
D02*
G37*
G36*
Y51000D02*
X302610D01*
Y47547D01*
X310000D01*
Y51000D01*
D02*
G37*
G36*
X7173Y32622D02*
X5000D01*
Y30449D01*
X7173D01*
Y32622D01*
D02*
G37*
G36*
X4000D02*
X1827D01*
Y30449D01*
X4000D01*
Y32622D01*
D02*
G37*
G36*
X7173Y29449D02*
X5000D01*
Y27276D01*
X7173D01*
Y29449D01*
D02*
G37*
G36*
X4000D02*
X1827D01*
Y27276D01*
X4000D01*
Y29449D01*
D02*
G37*
G36*
X32500Y25154D02*
Y23500D01*
X34154D01*
X33849Y24236D01*
X33235Y24849D01*
X32500Y25154D01*
D02*
G37*
G36*
X34154Y22500D02*
X32500D01*
Y20846D01*
X33235Y21151D01*
X33849Y21765D01*
X34154Y22500D01*
D02*
G37*
G36*
X286936Y109155D02*
X48436D01*
X48129Y109094D01*
X47868Y108920D01*
X47694Y108660D01*
X47633Y108353D01*
Y15353D01*
X47694Y15045D01*
X47868Y14785D01*
X48129Y14611D01*
X48436Y14550D01*
X286936D01*
X287243Y14611D01*
X287503Y14785D01*
X287677Y15045D01*
X287738Y15353D01*
Y108353D01*
X287677Y108660D01*
X287503Y108920D01*
X287243Y109094D01*
X286936Y109155D01*
D02*
G37*
G36*
X311680Y14405D02*
X311500D01*
Y8000D01*
X317905D01*
Y8180D01*
X317640Y9514D01*
X317120Y10771D01*
X316364Y11902D01*
X315402Y12864D01*
X314271Y13620D01*
X313014Y14140D01*
X311680Y14405D01*
D02*
G37*
G36*
X310500D02*
X310320D01*
X308986Y14140D01*
X307729Y13620D01*
X306598Y12864D01*
X305636Y11902D01*
X304880Y10771D01*
X304360Y9514D01*
X304095Y8180D01*
Y8000D01*
X310500D01*
Y14405D01*
D02*
G37*
G36*
X317905Y7000D02*
X311500D01*
Y594D01*
X311680D01*
X313014Y860D01*
X314271Y1380D01*
X315402Y2136D01*
X316364Y3098D01*
X317120Y4229D01*
X317640Y5486D01*
X317905Y6820D01*
Y7000D01*
D02*
G37*
G36*
X310500D02*
X304095D01*
Y6820D01*
X304360Y5486D01*
X304880Y4229D01*
X305636Y3098D01*
X306598Y2136D01*
X307729Y1380D01*
X308986Y860D01*
X310320Y594D01*
X310500D01*
Y7000D01*
D02*
G37*
G36*
X15405D02*
X9000D01*
Y594D01*
X9180D01*
X10514Y860D01*
X11771Y1380D01*
X12902Y2136D01*
X13864Y3098D01*
X14620Y4229D01*
X15140Y5486D01*
X15405Y6820D01*
Y7000D01*
D02*
G37*
G36*
X8000D02*
X1595D01*
Y6820D01*
X1860Y5486D01*
X2380Y4229D01*
X3136Y3098D01*
X4098Y2136D01*
X5229Y1380D01*
X6486Y860D01*
X7820Y594D01*
X8000D01*
Y7000D01*
D02*
G37*
%LPD*%
D15*
X17707Y37207D02*
G03*
X18000Y37914I-707J707D01*
G01*
X14258Y33758D02*
G03*
X13969Y33059I711J-704D01*
G01*
X18500Y9500D02*
X26000D01*
X13969Y14031D02*
Y17685D01*
Y14031D02*
X18500Y9500D01*
X32500Y40500D02*
Y50500D01*
X30000Y53000D02*
X32500Y50500D01*
Y68500D01*
X22904Y52868D02*
X23035Y52736D01*
X16632Y52868D02*
X22904D01*
X16500Y53000D02*
X16632Y52868D01*
X21567Y44988D02*
Y49260D01*
X22091Y49784D01*
X21559Y44980D02*
X21567Y44988D01*
X22091Y49784D02*
X23035D01*
X17500Y64000D02*
X18441Y64941D01*
X23035D01*
X17500Y60000D02*
Y64000D01*
X27338Y60162D02*
Y61877D01*
Y50969D02*
Y60162D01*
X26243Y62972D02*
X27338Y61877D01*
X23035Y62972D02*
X26243D01*
X12752Y84748D02*
X15500Y82000D01*
Y73429D02*
Y82000D01*
Y73429D02*
X17689Y71240D01*
X13000Y73000D02*
Y81500D01*
X10500Y84000D02*
X13000Y81500D01*
Y73000D02*
X17122Y68878D01*
X17689Y71240D02*
X23035D01*
X6449Y84000D02*
X10500D01*
X4500Y85949D02*
X6449Y84000D01*
X17122Y68878D02*
X23035D01*
X12752Y84748D02*
Y86500D01*
X23067Y60972D02*
X26528D01*
X27338Y60162D01*
Y50969D02*
X28787Y49520D01*
X23035Y61004D02*
X23067Y60972D01*
X29760Y71240D02*
X32500Y68500D01*
X23035Y71240D02*
X29760D01*
X19252Y59739D02*
X19955Y59035D01*
X23035D01*
X17761Y59739D02*
X19252D01*
X17500Y60000D02*
X17761Y59739D01*
X18567Y57067D02*
X23035D01*
X28787Y44712D02*
Y49520D01*
X18000Y37914D02*
Y40828D01*
X25488Y41413D02*
X28787Y44712D01*
X18586Y41413D02*
X25488D01*
X18000Y40828D02*
X18586Y41413D01*
X13500Y42000D02*
Y63500D01*
X11500Y40000D02*
X13500Y42000D01*
X6500Y40000D02*
X11500D01*
X10016Y28331D02*
X10031Y28315D01*
X10016Y28331D02*
Y35984D01*
X10000Y36000D02*
X10016Y35984D01*
X5139Y38639D02*
X6500Y40000D01*
X5139Y36690D02*
Y38639D01*
X4500Y36051D02*
X5139Y36690D01*
X32748Y84252D02*
X35000Y82000D01*
X32748Y84252D02*
Y87500D01*
X22750Y97797D02*
X23000Y98047D01*
X22750Y86500D02*
Y97797D01*
Y86500D02*
X26252D01*
X19248D02*
X22750D01*
X25000Y33000D02*
X32500Y40500D01*
X25000Y28000D02*
Y33000D01*
Y18158D02*
Y22414D01*
X25586Y23000D01*
X32000D01*
X21380Y28120D02*
Y32380D01*
X21500Y32500D01*
X21260Y28000D02*
X21380Y28120D01*
X28870Y28130D02*
Y32370D01*
X28740Y28000D02*
X28870Y28130D01*
Y32370D02*
X29000Y32500D01*
X21260Y18158D02*
Y21740D01*
X20000Y23000D02*
X21260Y21740D01*
X11500Y23000D02*
X20000D01*
X10031Y17685D02*
Y21531D01*
X11500Y23000D01*
X28500Y17917D02*
X28740Y18158D01*
X28500Y12000D02*
Y17917D01*
X26000Y9500D02*
X28500Y12000D01*
X14258Y33758D02*
X17707Y37207D01*
X13969Y28315D02*
Y33059D01*
D16*
X23035Y74193D02*
D03*
Y49784D02*
D03*
Y71240D02*
D03*
Y52736D02*
D03*
D17*
Y68878D02*
D03*
Y55098D02*
D03*
Y66909D02*
D03*
Y64941D02*
D03*
Y62972D02*
D03*
Y61004D02*
D03*
Y59035D02*
D03*
Y57067D02*
D03*
D18*
X6500Y67500D02*
D03*
Y56476D02*
D03*
D19*
X310500Y62130D02*
D03*
Y51500D02*
D03*
Y72760D02*
D03*
D20*
X22500Y98047D02*
D03*
Y103953D02*
D03*
D21*
X12752Y87500D02*
D03*
X19248D02*
D03*
X26252D02*
D03*
X32748D02*
D03*
D22*
X4500Y36051D02*
D03*
Y29949D02*
D03*
Y85949D02*
D03*
Y92051D02*
D03*
D23*
X21260Y18158D02*
D03*
X25000D02*
D03*
X28740D02*
D03*
Y28000D02*
D03*
X21260D02*
D03*
X25000D02*
D03*
D24*
X10031Y28315D02*
D03*
Y17685D02*
D03*
X13969D02*
D03*
Y28315D02*
D03*
D39*
X294000Y70500D02*
G03*
X302500Y62000I8500J0D01*
G01*
X294000Y70500D02*
Y74500D01*
X302500Y62000D02*
X310370D01*
X310500Y62130D01*
D40*
X18705Y50177D02*
D03*
X294000Y74500D02*
D03*
X30000Y53000D02*
D03*
X16500D02*
D03*
X18500Y57000D02*
D03*
X17500Y60000D02*
D03*
X10000Y36000D02*
D03*
X13500Y63500D02*
D03*
X35000Y82000D02*
D03*
X32000Y23000D02*
D03*
X21500Y32500D02*
D03*
X29000D02*
D03*
D41*
X18705Y50177D02*
D03*
Y73799D02*
D03*
D42*
X21559Y78996D02*
D03*
Y44980D02*
D03*
D43*
X6500Y78996D02*
D03*
Y44980D02*
D03*
D44*
X311000Y7500D02*
D03*
X8500D02*
D03*
X311000Y116500D02*
D03*
X8500D02*
D03*
M02*
