G04*
G04 #@! TF.GenerationSoftware,Altium Limited,Altium Designer,22.11.1 (43)*
G04*
G04 Layer_Color=32768*
%FSLAX25Y25*%
%MOIN*%
G70*
G04*
G04 #@! TF.SameCoordinates,6F2D09EA-FD7B-4BD8-B8BB-3870161F1110*
G04*
G04*
G04 #@! TF.FilePolarity,Positive*
G04*
G01*
G75*
%ADD50C,0.00197*%
D50*
X22500Y99032D02*
Y102969D01*
X20531Y101000D02*
X24468D01*
X25059Y95685D02*
Y106315D01*
X19941Y95685D02*
X25059D01*
X19941D02*
Y106315D01*
X25059D01*
X10095Y84744D02*
Y90256D01*
Y84744D02*
X21905D01*
Y90256D01*
X10095D02*
X21905D01*
X16000Y85532D02*
Y89468D01*
X14031Y87500D02*
X17968D01*
X23595Y84744D02*
Y90256D01*
Y84744D02*
X35405D01*
Y90256D01*
X23595D02*
X35405D01*
X29500Y85532D02*
Y89468D01*
X27531Y87500D02*
X31468D01*
X25000Y21110D02*
Y25047D01*
X23031Y23079D02*
X26969D01*
X18504Y15205D02*
Y30953D01*
Y15205D02*
X31496D01*
Y30953D01*
X18504D02*
X31496D01*
X7669Y31268D02*
X16331D01*
X7669Y14732D02*
Y31268D01*
Y14732D02*
X16331D01*
Y31268D01*
X12000Y21032D02*
Y24969D01*
X10031Y23000D02*
X13969D01*
M02*
