G04*
G04 #@! TF.GenerationSoftware,Altium Limited,Altium Designer,22.11.1 (43)*
G04*
G04 Layer_Color=65535*
%FSLAX25Y25*%
%MOIN*%
G70*
G04*
G04 #@! TF.SameCoordinates,6F2D09EA-FD7B-4BD8-B8BB-3870161F1110*
G04*
G04*
G04 #@! TF.FilePolarity,Positive*
G04*
G01*
G75*
%ADD10C,0.00787*%
%ADD11C,0.00591*%
%ADD12C,0.01968*%
%ADD13C,0.00500*%
%ADD14C,0.00600*%
%ADD15C,0.01000*%
G36*
X314480Y83340D02*
Y77500D01*
X306000D01*
Y83340D01*
X314480D01*
D02*
G37*
%LPC*%
G36*
X313480Y82340D02*
X310889D01*
Y78500D01*
X313480D01*
Y82340D01*
D02*
G37*
G36*
X308785D02*
X307000D01*
Y78500D01*
X310377D01*
D01*
X309711Y79546D01*
X309637Y79655D01*
X309561Y79755D01*
X309491Y79842D01*
X309457Y79879D01*
X309428Y79915D01*
X309398Y79949D01*
X309371Y79975D01*
X309348Y79998D01*
X309328Y80019D01*
X309314Y80035D01*
X309301Y80045D01*
X309294Y80052D01*
X309291Y80055D01*
X309248Y80092D01*
X309201Y80125D01*
X309148Y80158D01*
X309098Y80188D01*
X309055Y80212D01*
X309018Y80232D01*
X309005Y80238D01*
X308995Y80245D01*
X308988Y80248D01*
X308985D01*
X309085Y80265D01*
X309178Y80285D01*
X309264Y80308D01*
X309344Y80335D01*
X309418Y80361D01*
X309488Y80391D01*
X309547Y80421D01*
X309601Y80451D01*
X309647Y80481D01*
X309687Y80508D01*
X309724Y80535D01*
X309751Y80558D01*
X309774Y80575D01*
X309787Y80588D01*
X309797Y80598D01*
X309801Y80601D01*
X309847Y80655D01*
X309887Y80711D01*
X309924Y80771D01*
X309954Y80828D01*
X309980Y80888D01*
X310004Y80944D01*
X310020Y81001D01*
X310034Y81051D01*
X310044Y81101D01*
X310054Y81147D01*
X310060Y81187D01*
X310064Y81224D01*
X310067Y81251D01*
Y81274D01*
Y81287D01*
Y81291D01*
X310064Y81350D01*
X310060Y81407D01*
X310044Y81514D01*
X310017Y81613D01*
X310004Y81657D01*
X309987Y81697D01*
X309974Y81733D01*
X309957Y81767D01*
X309944Y81797D01*
X309934Y81820D01*
X309920Y81840D01*
X309914Y81853D01*
X309910Y81863D01*
X309907Y81867D01*
X309877Y81913D01*
X309844Y81956D01*
X309807Y82000D01*
X309774Y82037D01*
X309737Y82070D01*
X309701Y82100D01*
X309634Y82150D01*
X309574Y82186D01*
X309547Y82200D01*
X309524Y82213D01*
X309507Y82223D01*
X309494Y82230D01*
X309484Y82233D01*
X309481D01*
X309428Y82253D01*
X309371Y82270D01*
X309311Y82283D01*
X309248Y82296D01*
X309118Y82313D01*
X308991Y82326D01*
X308931Y82329D01*
X308878Y82333D01*
X308828Y82336D01*
X308785Y82340D01*
D02*
G37*
%LPD*%
G36*
X313480Y78500D02*
X311399D01*
Y80245D01*
X313200D01*
Y80698D01*
X311399D01*
Y81887D01*
X313480D01*
Y78500D01*
D02*
G37*
G36*
X308798Y81913D02*
X308872Y81910D01*
X308938Y81900D01*
X308998Y81890D01*
X309055Y81877D01*
X309105Y81860D01*
X309151Y81843D01*
X309194Y81830D01*
X309228Y81813D01*
X309261Y81797D01*
X309284Y81780D01*
X309308Y81767D01*
X309324Y81757D01*
X309334Y81747D01*
X309341Y81743D01*
X309344Y81740D01*
X309381Y81707D01*
X309411Y81670D01*
X309438Y81634D01*
X309461Y81597D01*
X309481Y81557D01*
X309494Y81520D01*
X309521Y81450D01*
X309534Y81387D01*
X309538Y81361D01*
X309541Y81337D01*
X309544Y81317D01*
Y81304D01*
Y81294D01*
Y81291D01*
X309541Y81221D01*
X309527Y81157D01*
X309511Y81101D01*
X309494Y81047D01*
X309474Y81004D01*
X309457Y80971D01*
X309451Y80961D01*
X309444Y80951D01*
X309441Y80948D01*
Y80944D01*
X309398Y80891D01*
X309351Y80841D01*
X309301Y80804D01*
X309251Y80771D01*
X309208Y80744D01*
X309174Y80728D01*
X309161Y80721D01*
X309151Y80718D01*
X309144Y80714D01*
X309141D01*
X309101Y80701D01*
X309061Y80691D01*
X308975Y80674D01*
X308885Y80661D01*
X308795Y80655D01*
X308755Y80651D01*
X308718Y80648D01*
X308685D01*
X308655Y80645D01*
X307509D01*
Y81917D01*
X308722D01*
X308798Y81913D01*
D02*
G37*
G36*
X308222Y80202D02*
X308272Y80198D01*
X308312Y80195D01*
X308342Y80192D01*
X308362Y80188D01*
X308375Y80185D01*
X308379D01*
X308422Y80172D01*
X308465Y80155D01*
X308502Y80138D01*
X308539Y80122D01*
X308565Y80105D01*
X308588Y80095D01*
X308605Y80085D01*
X308608Y80082D01*
X308652Y80052D01*
X308698Y80012D01*
X308742Y79969D01*
X308782Y79929D01*
X308818Y79889D01*
X308845Y79855D01*
X308855Y79842D01*
X308861Y79832D01*
X308868Y79829D01*
Y79825D01*
X308895Y79789D01*
X308925Y79749D01*
X308985Y79665D01*
X309048Y79579D01*
X309105Y79492D01*
X309131Y79456D01*
X309158Y79419D01*
X309178Y79386D01*
X309198Y79356D01*
X309214Y79333D01*
X309224Y79316D01*
X309231Y79303D01*
X309234Y79299D01*
X309741Y78500D01*
X307509D01*
Y80205D01*
X308166D01*
X308222Y80202D01*
D02*
G37*
D10*
X28941Y74193D02*
G03*
X28941Y74193I-394J0D01*
G01*
X301445Y62130D02*
G03*
X301445Y62130I-394J0D01*
G01*
D11*
X18799Y17961D02*
G03*
X18799Y17961I-295J0D01*
G01*
X30709Y21307D02*
Y24850D01*
X19291Y21307D02*
Y24850D01*
D12*
X73363Y114163D02*
X169818Y114317D01*
X293867Y81353D02*
Y114412D01*
X282436D02*
X293867D01*
X42852Y114329D02*
X52936D01*
X42852Y61353D02*
Y114329D01*
X293686Y9271D02*
Y60353D01*
X72936Y9353D02*
X261436D01*
X42436Y9339D02*
X52936D01*
X42436D02*
Y22353D01*
X281936Y9271D02*
X293686D01*
X192936Y114366D02*
X261436D01*
D13*
X12524Y44390D02*
X15535D01*
X-1177D02*
X476D01*
X-1177D02*
Y79587D01*
X476D01*
X12524D02*
X15535D01*
D14*
X1744Y28276D02*
Y37724D01*
X7256Y28276D02*
Y37724D01*
Y84276D02*
Y93724D01*
X1744Y84276D02*
Y93724D01*
D15*
X1668Y95552D02*
Y99550D01*
X3667D01*
X4334Y98884D01*
Y97551D01*
X3667Y96885D01*
X1668D01*
X3001D02*
X4334Y95552D01*
X8332D02*
X5666D01*
X8332Y98218D01*
Y98884D01*
X7666Y99550D01*
X6333D01*
X5666Y98884D01*
X6666Y25999D02*
Y22001D01*
X4666D01*
X4000Y22667D01*
Y24000D01*
X4666Y24667D01*
X6666D01*
X5333D02*
X4000Y25999D01*
X2667D02*
X1334D01*
X2001D01*
Y22001D01*
X2667Y22667D01*
X19666Y8501D02*
Y12499D01*
X17000D01*
X15667D02*
X14334D01*
X15001D01*
Y8501D01*
X15667Y9167D01*
X14001Y95499D02*
X11335D01*
Y93500D01*
X12668D01*
X11335D01*
Y91501D01*
X15334Y95499D02*
Y91501D01*
X17333D01*
X17999Y92167D01*
Y92834D01*
X17333Y93500D01*
X15334D01*
X17333D01*
X17999Y94166D01*
Y94833D01*
X17333Y95499D01*
X15334D01*
X19332Y91501D02*
X20665D01*
X19999D01*
Y95499D01*
X19332Y94833D01*
X26834Y95499D02*
X24168D01*
Y93500D01*
X25501D01*
X24168D01*
Y91501D01*
X28167Y95499D02*
Y91501D01*
X30166D01*
X30833Y92167D01*
Y92834D01*
X30166Y93500D01*
X28167D01*
X30166D01*
X30833Y94166D01*
Y94833D01*
X30166Y95499D01*
X28167D01*
X34832Y91501D02*
X32166D01*
X34832Y94166D01*
Y94833D01*
X34165Y95499D01*
X32832D01*
X32166Y94833D01*
X21834Y36999D02*
Y33001D01*
X23833D01*
X24500Y33667D01*
Y36333D01*
X23833Y36999D01*
X21834D01*
X25833Y33001D02*
X27166D01*
X26499D01*
Y36999D01*
X25833Y36333D01*
X30483Y100734D02*
X31150Y101401D01*
Y102734D01*
X30483Y103400D01*
X27818D01*
X27151Y102734D01*
Y101401D01*
X27818Y100734D01*
X27151Y99401D02*
Y98068D01*
Y98735D01*
X31150D01*
X30483Y99401D01*
X32535Y63504D02*
Y65503D01*
Y64503D01*
X27536D01*
X26536Y65503D01*
Y66503D01*
X27536Y67502D01*
X26536Y57506D02*
Y61504D01*
X30535Y57506D01*
X31535D01*
X32535Y58505D01*
Y60505D01*
X31535Y61504D01*
M02*
